# xmcd CD database file
#
# Track frame offsets:
#	150
#	14746
#	30693
#	46564
#	62540
#	82448
#
# Disc length: 1272 seconds
#
# Revision: 0
# Processed by: cddbd v1.5.1PL0 Copyright (c) Steve Scherf et al.
# Submitted via: CDex 1.50
#
DISCID=4804f606
DTITLE=Gunter Gabriel - Bye Bye Deutsche Mark
DYEAR=2001
DGENRE=Country
TTITLE0=Bye Bye Deutsche Mark - RADIO EDIT
TTITLE1=Bye Bye Deutsche Mark - ROCK VERSION
TTITLE2=Bye Bye Deutsche Mark - SINGLE EDIT
TTITLE3=Bye Bye Deutsche Mark - KARAOKE MIX
TTITLE4=Bye Bye Deutsche Mark - PARTY MIX
TTITLE5=Bye Bye Deutsche Mark - DEMO VERSION
EXTD=YEAR: 2001
EXTT0=
EXTT1=
EXTT2=
EXTT3=
EXTT4=
EXTT5=
PLAYORDER=
